{"title":"Excalibur 1981 DVD9rip English Klam","uid":5868122,"size":2313563886,"categoryP":"video","categoryS":"movies","magnet":"?xt=urn:btih:a5caf1cd97a4c1808f45fdc34f412a4b30ca3855&amp;dn=Excalibur+1981+DVD9rip+English+Klam&amp;tr=udp%3A%2F%2Ftracker.openbittorrent.com%3A80&amp;tr=udp%3A%2F%2Fopen.demonii.com%3A1337&amp;tr=udp%3A%2F%2Ftracker.coppersurfer.tk%3A6969&amp;tr=udp%3A%2F%2Fexodus.desync.com%3A6969","seeders":0,"leechers":0,"uploader":"Klambake","files":6,"time":1286279282,"description":"With: Nigel Terry, Helen Mirren en Nicholas Clay\n\nThe myth of King Arthur brought once again to the screen. Uthur Pendragon is given the mystical sword Excalibur by the wizard Merlyn. At his death Uthur buries the sword into a stone, and the next man that can pull it out will be King of England. Years later Arthur, Uthur's bastard son draws Excalibur and becomes king. Guided by Merlyn, Arthur marries Guenivere and gathers the Knights of the Round Table. Arthur's evil half-sister Morgana sires a son with him, who may prove his downfall. \n\nGeneral:\n\nComplete name                    : Klambake\\Excalibur\\Excalibur.avi\nFormat                           : AVI\nFormat/Info                      : Audio Video Interleave\nFile size                        : 2.15 GiB\nDuration                         : 2h 14mn\nOverall bit rate                 : 2 285 Kbps\n\nVideo:\n\nFormat                           : MPEG-4 Visual\nFormat profile                   : Simple@L3\nFormat settings, BVOP            : No\nFormat settings, QPel            : No\nFormat settings, GMC             : No warppoints\nFormat settings, Matrix          : Default (H.263)\nCodec ID                         : XVID\nCodec ID/Hint                    : XviD\nDuration                         : 2h 14mn\nBit rate                         : 1 890 Kbps\nWidth                            : 720 pixels\nHeight                           : 576 pixels\nDisplay aspect ratio             : 5:4\nFrame rate                       : 25.000 fps\nStandard                         : PAL\nColor space                      : YUV\nChroma subsampling               : 4:2:0\nBit depth                        : 8 bits\nScan type                        : Progressive\nBits/(Pixel*Frame)               : 0.182\nStream size                      : 1.78 GiB (83%)\nWriting library                  : XviD 1.1.2 (UTC 2006-11-01)\n\nAudio:\n\nFormat                           : AC-3\nFormat/Info                      : Audio Coding 3\nMode extension                   : CM (complete main)\nCodec ID                         : 2000\nDuration                         : 2h 14mn\nBit rate mode                    : Constant\nBit rate                         : 384 Kbps\nChannel(s)                       : 6 channels\nChannel positions                : Front: L C R, Side: L R, LFE\nSampling rate                    : 48.0 KHz\nBit depth                        : 16 bits\nStream size                      : 371 MiB (17%)\nAlignment                        : Aligned on interleaves\nInterleave, duration             : 32 ms (0.80 video frame)","torrent":{"xt":"urn:btih:a5caf1cd97a4c1808f45fdc34f412a4b30ca3855","amp;dn":"Excalibur+1981+DVD9rip+English+Klam","amp;tr":["udp%3A%2F%2Ftracker.openbittorrent.com%3A80","udp%3A%2F%2Fopen.demonii.com%3A1337","udp%3A%2F%2Ftracker.coppersurfer.tk%3A6969","udp%3A%2F%2Fexodus.desync.com%3A6969"],"infoHash":"a5caf1cd97a4c1808f45fdc34f412a4b30ca3855","infoHashBuffer":{"type":"Buffer","data":[165,202,241,205,151,164,193,128,143,69,253,195,79,65,42,75,48,202,56,85]},"announce":[],"urlList":[]}}